{"accessors" : [{"bufferView" : 0, "byteOffset" : 0, "componentType" : 5123, "count" : 12096, "type" : "SCALAR", "max" : [12095], "min" : [0]}, {"bufferView" : 1, "byteOffset" : 0, "componentType" : 5126, "count" : 12096, "type" : "VEC3", "max" : [58.617713928222656, 34.14802169799805, 53.78313446044922], "min" : [-51.22203063964844, -34.14802169799805, 0], "name" : "POSITION"}, {"bufferView" : 1, "byteOffset" : 12, "componentType" : 5126, "count" : 12096, "type" : "VEC3", "max" : [0.9994046092033386, 1.0000030994415283, 1.0000044107437134], "min" : [-0.9995801448822021, -1.0000030994415283, -1.0000042915344238], "name" : "NORMAL"}, {"bufferView" : 1, "byteOffset" : 24, "componentType" : 5126, "count" : 12096, "type" : "VEC2", "max" : [2, 7.450580596923828E-09], "min" : [0, -2], "name" : "TEXCOORD_0"}], "asset" : {"generator" : "Aspose.3D 21.6", "version" : "2.0"}, "buffers" : [{"uri" : "data:application/octet-stream;base64,", "byteLength" : 411272}], "bufferViews" : [{"buffer" : 0, "byteOffset" : 0, "byteLength" : 24192, "target" : 34963}, {"buffer" : 0, "byteOffset" : 24196, "byteLength" : 387072, "byteStride" : 32, "target" : 34962}], "meshes" : [{"primitives" : [{"attributes" : {"POSITION" : 1, "NORMAL" : 2, "TEXCOORD_0" : 3}, "indices" : 0, "mode" : 4}], "name" : ""}], "nodes" : [{"matrix" : [-0.9499325551906459, -2.7755575615628914E-17, 0.312455021705477, 0, 0.312455021705477, -2.220446049250313E-16, 0.9499325551906461, 0, 0, 1, 2.220446049250313E-16, 0, 0.07366486638784409, 0, -2.2260429859161377, 1], "mesh" : 0, "name" : "Teapot001"}], "scene" : 0, "scenes" : [{"nodes" : [0]}]}