{
    "asset": {
        "version": "2.0",
        "generator": "Open Asset Import Library (assimp v5.0.5eb040c7)"
    },
    "accessors": [
        {
            "bufferView": 0,
            "byteOffset": 0,
            "componentType": 5126,
            "count": 2082,
            "type": "VEC3",
            "max": [
                58.617713928222659,
                34.14802169799805,
                53.78313446044922
            ],
            "min": [
                -51.22203063964844,
                -34.14802169799805,
                0.0
            ]
        },
        {
            "bufferView": 1,
            "byteOffset": 0,
            "componentType": 5126,
            "count": 2082,
            "type": "VEC3",
            "max": [
                0.9994003176689148,
                0.9999988079071045,
                1.0
            ],
            "min": [
                -0.9995757341384888,
                -0.9999988079071045,
                -1.0
            ]
        },
        {
            "bufferView": 2,
            "byteOffset": 0,
            "componentType": 5125,
            "count": 12096,
            "type": "SCALAR",
            "max": [
                2081
            ],
            "min": [
                0
            ]
        }
    ],
    "buffers": [
        {
            "byteLength": 98352,
            "uri": "result.bin"
        }
    ],
    "bufferViews": [
        {
            "buffer": 0,
            "byteOffset": 0,
            "byteLength": 24984,
            "target": 34962
        },
        {
            "buffer": 0,
            "byteOffset": 24984,
            "byteLength": 24984,
            "target": 34962
        },
        {
            "buffer": 0,
            "byteOffset": 49968,
            "byteLength": 48384,
            "target": 34963
        }
    ],
    "materials": [
        {
            "name": "DefaultMaterial",
            "pbrMetallicRoughness": {
                "baseColorFactor": [
                    0.800000011920929,
                    0.800000011920929,
                    0.800000011920929,
                    1.0
                ],
                "metallicFactor": 0.0
            }
        }
    ],
    "meshes": [
        {
            "name": "Teapot001",
            "primitives": [
                {
                    "mode": 4,
                    "material": 0,
                    "indices": 2,
                    "attributes": {
                        "POSITION": 0,
                        "NORMAL": 1
                    }
                }
            ]
        }
    ],
    "nodes": [
        {
            "name": "RootNode",
            "children": [
                1
            ]
        },
        {
            "name": "Teapot001_$AssimpFbx$_Translation",
            "matrix": [
                1.0,
                0.0,
                0.0,
                0.0,
                0.0,
                1.0,
                0.0,
                0.0,
                0.0,
                0.0,
                1.0,
                0.0,
                0.07366486638784409,
                0.0,
                -2.2260429859161379,
                1.0
            ],
            "children": [
                2
            ]
        },
        {
            "name": "Teapot001_$AssimpFbx$_PreRotation",
            "matrix": [
                1.0,
                0.0,
                0.0,
                0.0,
                0.0,
                -4.371138828673793e-8,
                -1.0,
                0.0,
                0.0,
                1.0,
                -4.371138828673793e-8,
                0.0,
                0.0,
                0.0,
                0.0,
                1.0
            ],
            "children": [
                3
            ]
        },
        {
            "name": "Teapot001_$AssimpFbx$_Rotation",
            "matrix": [
                -0.9499325752258301,
                -0.31245502829551699,
                0.0,
                0.0,
                0.31245502829551699,
                -0.9499325752258301,
                0.0,
                0.0,
                0.0,
                0.0,
                1.0,
                0.0,
                0.0,
                0.0,
                0.0,
                1.0
            ],
            "children": [
                4
            ]
        },
        {
            "name": "Teapot001",
            "mesh": 0
        }
    ],
    "scenes": [
        {
            "nodes": [
                0
            ]
        }
    ],
    "scene": 0
}
